Normalized EMG Linear Envelopes
nRows=32
nColumns=17

endheader
time	        VM	        VL	        RF	       GRA	        TA	   ADDLONG	   SEMIMEM	      BFLH	        GM	        GL	       TFL	   GLUTMAX	   GLUTMED	      PIRI	    OBTINT	        QF	
2.0425	  0.040758	  0.031792	  0.168020	  0.770307	  0.754977	  0.268887	  0.280493	  0.158500	  0.098148	  0.098831	  0.325152	  0.021865	  0.102192	  0.126648	  0.215735	  0.058903	
2.043	  0.040918	  0.032279	  0.170061	  0.767185	  0.756078	  0.268029	  0.278049	  0.157052	  0.096492	  0.097849	  0.324223	  0.021943	  0.101519	  0.126431	  0.214827	  0.058514	
2.0435	  0.041083	  0.032785	  0.172132	  0.763973	  0.757092	  0.267162	  0.275589	  0.155598	  0.094867	  0.096893	  0.323297	  0.022018	  0.100824	  0.126205	  0.213925	  0.058134	
2.044	  0.041252	  0.033308	  0.174232	  0.760675	  0.758019	  0.266287	  0.273111	  0.154139	  0.093271	  0.095962	  0.322376	  0.022089	  0.100108	  0.125969	  0.213030	  0.057763	
2.0445	  0.041425	  0.033849	  0.176360	  0.757292	  0.758859	  0.265403	  0.270617	  0.152676	  0.091704	  0.095058	  0.321460	  0.022157	  0.099373	  0.125726	  0.212142	  0.057401	
2.045	  0.041602	  0.034406	  0.178513	  0.753828	  0.759614	  0.264511	  0.268107	  0.151209	  0.090168	  0.094179	  0.320551	  0.022221	  0.098618	  0.125474	  0.211259	  0.057049	
2.0455	  0.041783	  0.034979	  0.180692	  0.750286	  0.760282	  0.263612	  0.265583	  0.149738	  0.088660	  0.093325	  0.319648	  0.022283	  0.097845	  0.125214	  0.210382	  0.056706	
2.046	  0.041966	  0.035568	  0.182895	  0.746669	  0.760866	  0.262705	  0.263043	  0.148264	  0.087182	  0.092497	  0.318751	  0.022341	  0.097054	  0.124946	  0.209509	  0.056372	
2.0465	  0.042152	  0.036170	  0.185120	  0.742980	  0.761364	  0.261792	  0.260490	  0.146787	  0.085733	  0.091694	  0.317862	  0.022396	  0.096246	  0.124671	  0.208641	  0.056048	
2.047	  0.042341	  0.036787	  0.187367	  0.739220	  0.761777	  0.260872	  0.257924	  0.145308	  0.084312	  0.090915	  0.316981	  0.022448	  0.095422	  0.124390	  0.207777	  0.055732	
2.0475	  0.042532	  0.037417	  0.189633	  0.735392	  0.762104	  0.259945	  0.255347	  0.143826	  0.082920	  0.090161	  0.316108	  0.022497	  0.094581	  0.124102	  0.206917	  0.055426	
2.048	  0.042725	  0.038059	  0.191918	  0.731499	  0.762346	  0.259013	  0.252758	  0.142343	  0.081556	  0.089431	  0.315243	  0.022542	  0.093726	  0.123808	  0.206059	  0.055129	
2.0485	  0.042919	  0.038714	  0.194220	  0.727543	  0.762502	  0.258075	  0.250159	  0.140858	  0.080221	  0.088725	  0.314387	  0.022585	  0.092855	  0.123508	  0.205204	  0.054841	
2.049	  0.043116	  0.039379	  0.196538	  0.723527	  0.762571	  0.257130	  0.247551	  0.139373	  0.078913	  0.088043	  0.313539	  0.022626	  0.091971	  0.123204	  0.204349	  0.054562	
2.0495	  0.043313	  0.040055	  0.198871	  0.719454	  0.762553	  0.256179	  0.244934	  0.137887	  0.077632	  0.087384	  0.312701	  0.022663	  0.091074	  0.122894	  0.203496	  0.054292	
2.05	  0.043512	  0.040740	  0.201218	  0.715325	  0.762448	  0.255223	  0.242310	  0.136402	  0.076379	  0.086747	  0.311872	  0.022697	  0.090164	  0.122581	  0.202642	  0.054030	
2.0505	  0.043712	  0.041434	  0.203577	  0.711144	  0.762255	  0.254260	  0.239678	  0.134916	  0.075152	  0.086133	  0.311054	  0.022729	  0.089242	  0.122263	  0.201787	  0.053777	
2.051	  0.043912	  0.042137	  0.205947	  0.706913	  0.761973	  0.253291	  0.237040	  0.133432	  0.073953	  0.085541	  0.310246	  0.022758	  0.088309	  0.121942	  0.200930	  0.053533	
2.0515	  0.044112	  0.042847	  0.208328	  0.702634	  0.761601	  0.252316	  0.234397	  0.131949	  0.072779	  0.084970	  0.309448	  0.022784	  0.087366	  0.121617	  0.200071	  0.053297	
2.052	  0.044313	  0.043564	  0.210719	  0.698311	  0.761140	  0.251334	  0.231748	  0.130467	  0.071632	  0.084421	  0.308662	  0.022808	  0.086412	  0.121290	  0.199208	  0.053069	
2.0525	  0.044513	  0.044287	  0.213118	  0.693944	  0.760587	  0.250347	  0.229096	  0.128988	  0.070511	  0.083892	  0.307887	  0.022829	  0.085450	  0.120960	  0.198342	  0.052849	
2.053	  0.044713	  0.045016	  0.215526	  0.689538	  0.759943	  0.249353	  0.226440	  0.127511	  0.069415	  0.083383	  0.307124	  0.022847	  0.084480	  0.120628	  0.197471	  0.052637	
2.0535	  0.044912	  0.045749	  0.217940	  0.685094	  0.759208	  0.248354	  0.223781	  0.126037	  0.068344	  0.082893	  0.306372	  0.022863	  0.083502	  0.120295	  0.196594	  0.052432	
2.054	  0.045110	  0.046486	  0.220362	  0.680614	  0.758380	  0.247349	  0.221121	  0.124566	  0.067298	  0.082422	  0.305632	  0.022877	  0.082518	  0.119960	  0.195711	  0.052235	
2.0545	  0.045308	  0.047226	  0.222790	  0.676101	  0.757459	  0.246339	  0.218460	  0.123098	  0.066276	  0.081970	  0.304905	  0.022889	  0.081528	  0.119625	  0.194821	  0.052046	
2.055	  0.045504	  0.047968	  0.225224	  0.671557	  0.756445	  0.245325	  0.215798	  0.121635	  0.065279	  0.081536	  0.304189	  0.022898	  0.080532	  0.119290	  0.193923	  0.051864	
2.0555	  0.045698	  0.048713	  0.227665	  0.666984	  0.755339	  0.244306	  0.213138	  0.120176	  0.064305	  0.081119	  0.303485	  0.022905	  0.079532	  0.118955	  0.193018	  0.051689	
2.056	  0.045892	  0.049457	  0.230111	  0.662384	  0.754138	  0.243282	  0.210479	  0.118722	  0.063355	  0.080718	  0.302794	  0.022910	  0.078528	  0.118621	  0.192103	  0.051521	
2.0565	  0.046084	  0.050203	  0.232564	  0.657761	  0.752844	  0.242255	  0.207822	  0.117273	  0.062427	  0.080334	  0.302116	  0.022913	  0.077521	  0.118287	  0.191180	  0.051359	
2.057	  0.046274	  0.050947	  0.235022	  0.653114	  0.751457	  0.241224	  0.205169	  0.115830	  0.061522	  0.079966	  0.301451	  0.022914	  0.076512	  0.117955	  0.190248	  0.051205	
2.0575	  0.046463	  0.051690	  0.237486	  0.648447	  0.749977	  0.240189	  0.202521	  0.114392	  0.060639	  0.079612	  0.300799	  0.022913	  0.075501	  0.117624	  0.189306	  0.051057	
2.058	  0.046650	  0.052431	  0.239955	  0.643762	  0.748405	  0.239150	  0.199877	  0.112960	  0.059777	  0.079272	  0.300161	  0.022911	  0.074489	  0.117296	  0.188355	  0.050915	
